<svg xmlns="http://www.w3.org/2000/svg" width="1360" height="290" font-family="sans-serif" font-size="11"><text x="170" y="16" text-anchor="middle" font-weight="bold">ATOC (C)</text><line x1="46" y1="214" x2="320" y2="214" stroke="#333"/><line x1="46" y1="25" x2="46" y2="214" stroke="#333"/><text x="46" y="229" text-anchor="middle">0.5</text><text x="100.79999999999998" y="229" text-anchor="middle">0.6</text><text x="155.59999999999997" y="229" text-anchor="middle">0.7</text><text x="210.40000000000003" y="229" text-anchor="middle">0.8</text><text x="265.20000000000005" y="229" text-anchor="middle">0.9</text><text x="320" y="229" text-anchor="middle">1</text><text x="41" y="218" text-anchor="end">30.9</text><text x="41" y="170.75" text-anchor="end">38.1</text><text x="41" y="123.50000000000001" text-anchor="end">45.3</text><text x="41" y="76.25" text-anchor="end">52.4</text><text x="41" y="29" text-anchor="end">59.6</text><text x="170" y="252" text-anchor="middle">Utilisation Factor</text><polyline fill="none" stroke="#d95f02" stroke-width="2" points="46,198.25 100.79999999999998,181.29241435562807 155.59999999999997,162.41112435688294 210.40000000000003,133.26568578240685 265.20000000000005,100.89211318860586 320,60.92913163508598"/><circle cx="46" cy="198.25" r="3" fill="#d95f02"/><circle cx="100.79999999999998" cy="181.29241435562807" r="3" fill="#d95f02"/><circle cx="155.59999999999997" cy="162.41112435688294" r="3" fill="#d95f02"/><circle cx="210.40000000000003" cy="133.26568578240685" r="3" fill="#d95f02"/><circle cx="265.20000000000005" cy="100.89211318860586" r="3" fill="#d95f02"/><circle cx="320" cy="60.92913163508598" r="3" fill="#d95f02"/><text x="250" y="34" fill="#d95f02">Baseline</text><polyline fill="none" stroke="#1b7837" stroke-width="2" points="46,188.97405571589914 100.79999999999998,166.56158238172924 155.59999999999997,144.97920065252856 210.40000000000003,109.93747647132643 265.20000000000005,79.91583009160499 320,40.75000000000003"/><circle cx="46" cy="188.97405571589914" r="3" fill="#1b7837"/><circle cx="100.79999999999998" cy="166.56158238172924" r="3" fill="#1b7837"/><circle cx="155.59999999999997" cy="144.97920065252856" r="3" fill="#1b7837"/><circle cx="210.40000000000003" cy="109.93747647132643" r="3" fill="#1b7837"/><circle cx="265.20000000000005" cy="79.91583009160499" r="3" fill="#1b7837"/><circle cx="320" cy="40.75000000000003" r="3" fill="#1b7837"/><text x="250" y="48" fill="#1b7837">CETAS</text><text x="510" y="16" text-anchor="middle" font-weight="bold">SRat (%)</text><line x1="386" y1="214" x2="660" y2="214" stroke="#333"/><line x1="386" y1="25" x2="386" y2="214" stroke="#333"/><text x="386" y="229" text-anchor="middle">0.5</text><text x="440.8" y="229" text-anchor="middle">0.6</text><text x="495.59999999999997" y="229" text-anchor="middle">0.7</text><text x="550.4000000000001" y="229" text-anchor="middle">0.8</text><text x="605.2" y="229" text-anchor="middle">0.9</text><text x="660" y="229" text-anchor="middle">1</text><text x="381" y="218" text-anchor="end">86.8</text><text x="381" y="170.74999999999991" text-anchor="end">90.4</text><text x="381" y="123.5" text-anchor="end">94.0</text><text x="381" y="76.25000000000009" text-anchor="end">97.6</text><text x="381" y="29" text-anchor="end">101.2</text><text x="510" y="252" text-anchor="middle">Utilisation Factor</text><polyline fill="none" stroke="#d95f02" stroke-width="2" points="386,40.75000000000003 440.8,40.75000000000003 495.59999999999997,40.75000000000003 550.4000000000001,119.5 605.2,198.24999999999997 660,171.99999999999997"/><circle cx="386" cy="40.75000000000003" r="3" fill="#d95f02"/><circle cx="440.8" cy="40.75000000000003" r="3" fill="#d95f02"/><circle cx="495.59999999999997" cy="40.75000000000003" r="3" fill="#d95f02"/><circle cx="550.4000000000001" cy="119.5" r="3" fill="#d95f02"/><circle cx="605.2" cy="198.24999999999997" r="3" fill="#d95f02"/><circle cx="660" cy="171.99999999999997" r="3" fill="#d95f02"/><text x="590" y="34" fill="#d95f02">Baseline</text><polyline fill="none" stroke="#1b7837" stroke-width="2" points="386,40.75000000000003 440.8,40.75000000000003 495.59999999999997,40.75000000000003 550.4000000000001,119.5 605.2,198.24999999999997 660,171.99999999999997"/><circle cx="386" cy="40.75000000000003" r="3" fill="#1b7837"/><circle cx="440.8" cy="40.75000000000003" r="3" fill="#1b7837"/><circle cx="495.59999999999997" cy="40.75000000000003" r="3" fill="#1b7837"/><circle cx="550.4000000000001" cy="119.5" r="3" fill="#1b7837"/><circle cx="605.2" cy="198.24999999999997" r="3" fill="#1b7837"/><circle cx="660" cy="171.99999999999997" r="3" fill="#1b7837"/><text x="590" y="48" fill="#1b7837">CETAS</text><text x="850" y="16" text-anchor="middle" font-weight="bold">NEC</text><line x1="726" y1="214" x2="1000" y2="214" stroke="#333"/><line x1="726" y1="25" x2="726" y2="214" stroke="#333"/><text x="726" y="229" text-anchor="middle">0.5</text><text x="780.8" y="229" text-anchor="middle">0.6</text><text x="835.6" y="229" text-anchor="middle">0.7</text><text x="890.4000000000001" y="229" text-anchor="middle">0.8</text><text x="945.2" y="229" text-anchor="middle">0.9</text><text x="1000" y="229" text-anchor="middle">1</text><text x="721" y="218" text-anchor="end">0.046</text><text x="721" y="170.75" text-anchor="end">0.214</text><text x="721" y="123.5" text-anchor="end">0.381</text><text x="721" y="76.25" text-anchor="end">0.549</text><text x="721" y="29" text-anchor="end">0.716</text><text x="850" y="252" text-anchor="middle">Utilisation Factor</text><polyline fill="none" stroke="#d95f02" stroke-width="2" points="726,140.10787211176788 780.8,123.91496507254163 835.6,105.74731327243418 890.4000000000001,86.19734013970984 945.2,66.56273508866204 1000,40.75"/><circle cx="726" cy="140.10787211176788" r="3" fill="#d95f02"/><circle cx="780.8" cy="123.91496507254163" r="3" fill="#d95f02"/><circle cx="835.6" cy="105.74731327243418" r="3" fill="#d95f02"/><circle cx="890.4000000000001" cy="86.19734013970984" r="3" fill="#d95f02"/><circle cx="945.2" cy="66.56273508866204" r="3" fill="#d95f02"/><circle cx="1000" cy="40.75" r="3" fill="#d95f02"/><text x="930" y="34" fill="#d95f02">Baseline</text><polyline fill="none" stroke="#1b7837" stroke-width="2" points="726,198.25 780.8,183.52404621171414 835.6,168.7698817839871 890.4000000000001,144.64978506179472 945.2,120.58610961848467 1000,87.49502955400322"/><circle cx="726" cy="198.25" r="3" fill="#1b7837"/><circle cx="780.8" cy="183.52404621171414" r="3" fill="#1b7837"/><circle cx="835.6" cy="168.7698817839871" r="3" fill="#1b7837"/><circle cx="890.4000000000001" cy="144.64978506179472" r="3" fill="#1b7837"/><circle cx="945.2" cy="120.58610961848467" r="3" fill="#1b7837"/><circle cx="1000" cy="87.49502955400322" r="3" fill="#1b7837"/><text x="930" y="48" fill="#1b7837">CETAS</text><text x="1190" y="16" text-anchor="middle" font-weight="bold">CSO (us/slot)</text><line x1="1066" y1="214" x2="1340" y2="214" stroke="#333"/><line x1="1066" y1="25" x2="1066" y2="214" stroke="#333"/><text x="1066" y="229" text-anchor="middle">0.5</text><text x="1120.8" y="229" text-anchor="middle">0.6</text><text x="1175.6" y="229" text-anchor="middle">0.7</text><text x="1230.4" y="229" text-anchor="middle">0.8</text><text x="1285.2" y="229" text-anchor="middle">0.9</text><text x="1340" y="229" text-anchor="middle">1</text><text x="1061" y="218" text-anchor="end">0.125</text><text x="1061" y="170.74999999999986" text-anchor="end">0.128</text><text x="1061" y="123.4999999999999" text-anchor="end">0.131</text><text x="1061" y="76.24999999999997" text-anchor="end">0.135</text><text x="1061" y="29" text-anchor="end">0.138</text><text x="1190" y="252" text-anchor="middle">Utilisation Factor</text><polyline fill="none" stroke="#d95f02" stroke-width="2" points="1066,189.84293443666456 1120.8,198.25000000000009 1175.6,180.83434118395942 1230.4,148.3948122215149 1285.2,87.64051559516238 1340,40.750000000000114"/><circle cx="1066" cy="189.84293443666456" r="3" fill="#d95f02"/><circle cx="1120.8" cy="198.25000000000009" r="3" fill="#d95f02"/><circle cx="1175.6" cy="180.83434118395942" r="3" fill="#d95f02"/><circle cx="1230.4" cy="148.3948122215149" r="3" fill="#d95f02"/><circle cx="1285.2" cy="87.64051559516238" r="3" fill="#d95f02"/><circle cx="1340" cy="40.750000000000114" r="3" fill="#d95f02"/><text x="1270" y="34" fill="#d95f02">Baseline</text><polyline fill="none" stroke="#1b7837" stroke-width="2" points="1066,189.84293443666456 1120.8,198.25000000000009 1175.6,180.83434118395942 1230.4,148.3948122215149 1285.2,87.64051559516238 1340,40.750000000000114"/><circle cx="1066" cy="189.84293443666456" r="3" fill="#1b7837"/><circle cx="1120.8" cy="198.25000000000009" r="3" fill="#1b7837"/><circle cx="1175.6" cy="180.83434118395942" r="3" fill="#1b7837"/><circle cx="1230.4" cy="148.3948122215149" r="3" fill="#1b7837"/><circle cx="1285.2" cy="87.64051559516238" r="3" fill="#1b7837"/><circle cx="1340" cy="40.750000000000114" r="3" fill="#1b7837"/><text x="1270" y="48" fill="#1b7837">CETAS</text></svg>